<?xml version="1.0" standalone="no"?>
<!DOCTYPE svg PUBLIC "-//W3C//DTD SVG 20010904//EN"
 "http://www.w3.org/TR/2001/REC-SVG-20010904/DTD/svg10.dtd">
<svg version="1.0" xmlns="http://www.w3.org/2000/svg"
 width="308.000000pt" height="83.000000pt" viewBox="0 0 308.000000 83.000000"
 preserveAspectRatio="xMidYMid meet">

<g transform="translate(0.000000,83.000000) scale(0.100000,-0.100000)"
fill="#000000" stroke="none">
<path d="M1086 763 l-88 -4 7 -217 c4 -119 10 -221 12 -226 3 -5 66 -5 142 -1
145 7 180 18 200 62 16 35 14 276 -3 316 -30 72 -58 79 -270 70z m114 -223 c0
-103 -14 -120 -24 -29 -10 96 -8 119 9 119 12 0 15 -17 15 -90z"/>
<path d="M1402 548 l3 -223 120 -3 c135 -4 185 7 214 45 19 23 21 39 21 182
-1 218 -4 221 -220 221 l-140 0 2 -222z m188 2 c0 -53 -4 -90 -10 -90 -6 0
-10 37 -10 90 0 53 4 90 10 90 6 0 10 -37 10 -90z"/>
<path d="M1796 708 c-3 -35 -7 -135 -8 -223 l-3 -160 81 -3 82 -3 6 63 c9 100
11 362 3 376 -5 8 -34 12 -81 12 l-74 0 -6 -62z"/>
<path d="M2065 751 c-11 -5 -31 -20 -44 -34 -21 -23 -24 -40 -33 -157 -17
-219 -5 -238 155 -253 114 -11 144 -4 180 45 16 21 21 52 28 162 14 207 -2
229 -171 239 -52 4 -104 2 -115 -2z m119 -154 c0 -9 -1 -48 -2 -87 -2 -58 -5
-70 -18 -70 -15 0 -16 9 -10 61 3 34 6 75 6 91 0 19 4 28 13 26 6 -3 12 -12
11 -21z"/>
<path d="M731 740 c-55 -6 -69 -12 -93 -39 -24 -27 -28 -40 -28 -90 0 -86 20
-315 28 -322 4 -4 41 -4 82 0 l75 6 0 49 c0 67 23 74 27 9 l3 -48 78 1 c43 1
81 4 84 8 12 12 -17 347 -33 377 -28 56 -75 66 -223 49z m73 -155 c7 -27 1
-45 -15 -45 -5 0 -9 16 -9 35 0 41 15 47 24 10z"/>
<path d="M330 704 c-63 -8 -118 -18 -122 -22 -8 -8 35 -428 44 -437 5 -5 241
22 272 31 34 10 65 45 71 78 9 48 -22 285 -40 313 -16 24 -72 54 -97 52 -7 -1
-65 -8 -128 -15z m88 -219 c5 -44 6 -84 1 -89 -5 -6 -10 -4 -13 5 -9 24 -24
163 -19 172 11 19 22 -12 31 -88z"/>
<path d="M2539 703 c0 -10 -10 -107 -23 -216 -12 -109 -19 -200 -14 -203 4 -3
65 -12 134 -20 197 -23 219 -8 241 155 21 159 18 205 -15 242 -25 28 -36 32
-132 45 -148 19 -190 18 -191 -3z m176 -207 c-8 -85 -13 -106 -27 -106 -7 0
-8 26 -4 78 9 93 14 114 28 106 6 -4 7 -33 3 -78z"/>
<path d="M1663 280 c-42 -10 -59 -24 -68 -57 -9 -36 11 -79 44 -93 15 -6 61
-10 102 -8 l74 3 3 38 3 37 -50 0 c-37 0 -51 -4 -51 -14 0 -8 6 -17 13 -20 6
-3 -3 -4 -22 -3 -41 2 -62 28 -45 55 12 17 34 19 107 6 30 -5 37 -3 37 10 0
34 -85 61 -147 46z"/>
<path d="M1118 273 l-58 -4 0 -79 0 -80 84 0 c98 0 116 5 116 32 0 18 -5 19
-65 13 -56 -6 -65 -5 -65 9 0 13 11 16 50 16 38 0 50 4 50 15 0 11 -12 15 -50
15 -68 0 -63 16 6 23 64 7 67 8 58 31 -4 11 -16 15 -38 14 -17 -1 -57 -3 -88
-5z"/>
<path d="M1291 254 c-12 -15 -21 -30 -21 -35 0 -17 46 -39 82 -39 21 0 38 -5
38 -10 0 -6 -20 -8 -55 -4 -58 7 -68 -1 -37 -29 28 -25 126 -23 152 3 43 43
16 80 -59 80 -23 0 -41 4 -41 10 0 6 23 7 60 3 54 -5 60 -4 54 11 -10 26 -38
36 -98 36 -47 0 -57 -4 -75 -26z"/>
<path d="M1500 200 l0 -80 35 0 35 0 0 80 0 80 -35 0 -35 0 0 -80z"/>
<path d="M1848 200 c-3 -83 0 -90 42 -90 18 0 23 14 33 90 1 8 19 -9 40 -38
37 -49 41 -52 83 -52 l44 0 0 80 0 80 -34 0 -35 0 -3 -52 -3 -52 -43 57 c-39
52 -46 57 -82 57 l-38 0 -4 -80z"/>
<path d="M816 253 c-17 -5 -18 -12 -12 -81 4 -42 9 -78 11 -80 2 -3 43 0 92 6
77 9 90 14 111 38 18 21 22 34 18 58 -10 52 -37 66 -125 65 -42 -1 -84 -3 -95
-6z m128 -39 c10 -4 16 -18 16 -35 0 -22 -6 -30 -24 -35 -45 -11 -61 -2 -64
39 -3 35 -2 37 27 37 16 0 36 -3 45 -6z"/>
<path d="M2136 241 c-10 -11 -16 -30 -14 -43 2 -18 12 -25 43 -32 59 -12 68
-16 62 -22 -3 -3 -28 -1 -56 4 -28 5 -53 6 -56 2 -2 -4 7 -18 21 -31 19 -18
36 -23 80 -23 47 -1 59 3 75 23 10 13 19 27 19 31 0 19 -33 39 -76 46 -33 5
-43 9 -35 17 8 8 17 8 31 -1 23 -14 80 -16 80 -3 0 5 -12 19 -26 30 -36 28
-123 29 -148 2z"/>
</g>
</svg>
